<svg width="32" height="32" viewBox="0 0 32 32" fill="none" xmlns="http://www.w3.org/2000/svg">
<circle cx="16" cy="16" r="16" fill="#006D5B"/>
<g clip-path="url(#clip0_36_8)">
<path d="M15.2399 2.71354C15.5272 2.67687 15.8231 2.71867 16.1117 2.72031C16.7687 2.72405 17.4111 2.66974 18.0614 2.81163C18.9919 3.01466 19.7947 3.54878 20.312 4.38419C20.604 4.85571 20.8111 5.40985 20.9038 5.96206C21.0187 6.64624 20.9505 7.38105 20.9506 8.07399C20.9507 9.14297 21.0739 10.3029 20.8543 11.3501C22.5184 11.3773 24.1797 11.3386 25.8431 11.3409C27.0615 11.3425 27.8903 11.4648 28.7812 12.4026C29.8012 13.4765 29.824 14.8251 29.8143 16.2408C29.8053 17.5551 29.6657 18.7599 28.7184 19.7222C28.2506 20.1975 27.683 20.5339 27.0456 20.6915C26.3437 20.8651 25.3832 20.7767 24.6443 20.7725L20.8512 20.7421C20.8702 20.965 20.8947 21.1875 20.9081 21.4108C20.9532 22.1649 20.9281 22.9372 20.9322 23.6937C20.9369 24.556 21.0113 26.1213 20.8249 26.928C20.6861 27.5283 20.3933 28.1104 19.9969 28.5703C19.3425 29.3296 18.3081 29.7532 17.3409 29.8028C16.6186 29.8678 15.8645 29.8509 15.1416 29.801C14.0593 29.7264 13.0979 29.2401 12.3856 28.3846C12.0016 27.9235 11.7189 27.354 11.5882 26.7591C11.4375 26.0735 11.5047 25.3301 11.4967 24.6301C11.482 23.3416 11.4356 22.0291 11.5311 20.7445L10.2673 20.7594L7.91171 20.7755C6.40891 20.7823 4.84381 20.8705 3.68586 19.6848C2.70504 18.6806 2.71398 17.3452 2.70999 16.0118C2.70583 14.634 2.73662 13.4807 3.73771 12.4447C4.17363 11.9936 4.6933 11.6894 5.28804 11.527C6.2311 11.2694 7.25815 11.3643 8.22537 11.3636L11.5357 11.3605C11.4626 10.3171 11.4786 9.27897 11.4787 8.23369C11.4787 7.40038 11.4059 6.49664 11.5906 5.68114C11.7147 5.13365 11.9639 4.61507 12.3072 4.18034C13.0489 3.2407 14.1043 2.82962 15.2399 2.71354Z" fill="#006D5B"/>
<path d="M14.0266 18.056C14.1162 18.0523 14.2029 18.0463 14.2854 18.0902C14.3894 18.1457 14.5009 18.3043 14.5307 18.4203C14.5865 18.6375 14.5006 18.8549 14.3897 19.0365C14.1474 19.4336 13.3488 20.3109 12.908 20.4165C12.8428 20.4055 12.7729 20.3934 12.7132 20.3628C12.479 20.2426 12.4105 19.9595 12.3413 19.7213C12.537 19.4557 12.8116 19.2295 13.0488 19.004L14.0266 18.056Z" fill="#FFB81C"/>
<path d="M11.8595 16.7168L11.9169 16.7156C12.2042 16.7112 12.6915 16.7365 12.9 16.9678C12.9622 17.0368 12.9888 17.1259 12.9812 17.2193C12.9414 17.7107 12.2302 18.2468 11.8922 18.5513C11.8297 18.5929 11.7725 18.6248 11.6989 18.6401C11.5431 18.6727 11.4006 18.6483 11.2719 18.549C10.9811 18.3245 10.9105 17.9923 10.8525 17.6449C11.1365 17.2113 11.4116 16.9554 11.8595 16.7168Z" fill="#FFB81C"/>
<path d="M15.5522 19.9291C15.7048 19.9133 15.9419 19.9488 16.0748 20.0377C16.1525 20.0897 16.2027 20.1551 16.2221 20.249C16.2672 20.4669 16.151 20.7094 16.034 20.8817C15.7075 21.3629 15.1766 21.848 14.6069 21.9467C14.4586 21.9325 14.3079 21.8607 14.1755 21.7919C14.0739 21.739 13.9924 21.6654 13.958 21.5495C13.9135 21.3996 13.9571 21.2434 14.0297 21.1111C14.2921 20.6337 15.0481 20.0869 15.5522 19.9291Z" fill="#FFB81C"/>
<path d="M16.3831 3.76689C16.6796 3.76204 16.9778 3.75725 17.274 3.77465C18.0634 3.82108 18.739 4.04448 19.2749 4.6795C19.5559 5.01245 19.7584 5.4393 19.8502 5.87134C19.9743 6.4559 19.9064 7.10067 19.9041 7.69597C19.9014 8.37204 19.9254 9.04944 19.9096 9.72522C19.9006 10.1082 19.8652 10.4868 19.8407 10.8687C19.4988 10.4942 19.157 10.1208 18.7588 9.80947C17.84 9.09102 16.9107 8.88811 15.7823 9.0589C14.5949 9.29662 14.0076 9.81619 13.1553 10.6586C12.9986 10.8135 12.8564 10.9858 12.6919 11.1315L12.6482 11.1241C12.557 10.9871 12.5454 10.7228 12.5378 10.5577C12.5004 9.74197 12.5183 8.92057 12.517 8.10419C12.5158 7.3552 12.4334 6.55096 12.5995 5.81785C12.6969 5.38779 12.8953 4.97625 13.1848 4.65106C14.0132 3.72041 15.2641 3.8087 16.3831 3.76689Z" fill="#FFB81C"/>
<path d="M19.7953 21.0858C19.8177 21.0961 19.8315 21.1185 19.8476 21.1374C19.9498 21.7879 19.8897 22.7183 19.8904 23.3942C19.8913 24.3477 19.9516 25.3832 19.8557 26.328C19.826 26.6197 19.7566 26.8994 19.6473 27.1699C19.3716 27.8521 18.8732 28.3754 18.2093 28.6497C17.993 28.7392 17.7665 28.7922 17.5354 28.8192C17.1117 28.8687 16.6777 28.8409 16.252 28.8417C15.7658 28.8427 15.2706 28.8737 14.7874 28.8034C14.5222 28.7648 14.2672 28.6937 14.0221 28.5806C13.3796 28.284 12.91 27.7297 12.6616 27.0502C12.4355 26.3041 12.5486 25.1612 12.5444 24.3673C12.5393 23.4051 12.4732 22.4528 12.578 21.493C12.7547 21.7737 12.9393 22.0423 13.1582 22.2896C13.5457 22.7273 14.022 23.0626 14.6112 23.0802C15.6066 23.1099 16.3638 22.1663 17.0289 21.5157C17.3108 21.7034 17.5841 21.8232 17.9234 21.844C18.6843 21.8908 19.2399 21.5969 19.7953 21.0858Z" fill="#FFB81C"/>
<path d="M16.288 10.1285C16.3997 10.1137 16.5103 10.1089 16.6227 10.1076C18.0012 10.0914 18.7276 11.2583 19.6163 12.1506C19.7524 12.2873 19.8894 12.3884 20.0773 12.4289C20.514 12.5231 21.0409 12.474 21.4891 12.4839C22.6384 12.5093 23.7895 12.5293 24.9391 12.5114C25.32 12.5055 25.7004 12.4696 26.0811 12.4657C26.8216 12.4579 27.4987 12.6338 28.0377 13.1888C28.5559 13.7224 28.7524 14.3638 28.7559 15.1104C28.758 15.5581 28.7473 16.0067 28.7403 16.4543C28.7248 17.4456 28.6875 18.2595 27.9716 18.9986C27.2439 19.75 26.3361 19.6876 25.384 19.6695C24.9223 19.6607 24.4602 19.6635 23.9984 19.6638C23.2112 19.6577 22.4348 19.7436 21.6461 19.6924C21.9044 19.1855 22.108 18.7651 22.0246 18.1738C21.9832 17.8798 21.9044 17.6984 21.7341 17.4578C21.2876 16.8274 20.7215 16.2826 20.1945 15.7266L18.4127 13.8223L17.4795 12.8293C17.2742 12.6103 17.077 12.3634 16.8367 12.1853C16.5608 11.9807 16.1826 12.0179 15.8668 12.0707C15.3248 12.5158 14.9783 13.276 14.2301 13.3874C13.9509 13.429 13.6065 13.3585 13.3799 13.178C13.2552 13.0787 13.1811 12.9448 13.1649 12.782C13.1343 12.4741 13.3128 12.1875 13.4923 11.9592C13.6779 11.723 13.8948 11.5065 14.1042 11.2929C14.7896 10.5937 15.3184 10.2331 16.288 10.1285Z" fill="#FFB81C"/>
<path d="M8.4973 12.4662L10.5572 12.4644C11.0034 12.466 11.4875 12.4451 11.9275 12.5197C12.1794 13.1208 12.0185 13.4376 12.6001 13.9047C13.1087 14.3133 13.7648 14.5497 14.4098 14.4589C15.2203 14.3448 15.7874 13.8149 16.2653 13.1665C16.6526 13.5539 17.0034 13.9823 17.3811 14.3803L19.3715 16.4986C19.8421 16.9985 20.6971 17.7675 20.9934 18.3522C20.9693 18.5335 20.9284 18.7299 20.8215 18.8797C20.6441 19.1283 20.3551 19.161 20.0828 19.2076C19.6707 18.9659 19.3606 18.4841 19.0475 18.1243C18.5682 17.5736 16.9421 15.7879 16.3475 15.5161C16.2097 15.4531 16.0484 15.4117 15.9045 15.4779C15.6891 15.577 15.6013 15.8432 15.5294 16.0565C15.5889 16.1935 15.6713 16.3111 15.768 16.4223C16.0851 16.7869 16.4704 17.1012 16.8142 17.4389C17.2599 17.8768 17.6791 18.3438 18.1236 18.783C18.3918 19.0482 18.7108 19.297 18.9317 19.6073C19.0874 19.826 19.0886 19.9403 19.0526 20.2007C18.9501 20.349 18.8474 20.4712 18.6975 20.5708C18.3057 20.8309 17.8725 20.7726 17.4459 20.6711C17.2458 20.3675 17.1449 20.0027 16.9443 19.6951C16.8891 19.6103 16.8284 19.5257 16.7617 19.4503C16.6094 19.2784 16.3829 19.1885 16.2353 19.0185C16.1268 18.8936 16.0411 18.7157 15.9525 18.5732C15.7954 18.3208 15.6001 18.1042 15.384 17.9051C15.0204 17.5701 14.5133 17.3404 14.1867 17.0059C13.9217 16.7345 13.8852 16.323 13.6003 16.0519C13.2446 15.7134 12.6379 15.6056 12.1713 15.6277C11.5073 15.659 10.8514 15.9608 10.4014 16.4737C10.0645 16.8577 9.83273 17.3896 9.86346 17.9162C9.91616 18.8205 10.4508 19.117 11.0387 19.6538C10.822 19.6776 10.6043 19.6949 10.3866 19.7067C9.74419 19.7414 9.09164 19.6802 8.44797 19.6761C7.66036 19.6711 6.26021 19.7639 5.55249 19.6079C5.14692 19.5186 4.75505 19.3249 4.44875 19.0321C3.98896 18.5928 3.77345 17.9727 3.74727 17.3336C3.73238 16.9705 3.74485 16.6056 3.73435 16.2419C3.70519 15.2355 3.60811 14.1256 4.32077 13.3288C5.04927 12.5141 5.99722 12.4859 6.99523 12.4834C7.49609 12.4821 7.99672 12.4871 8.4973 12.4662Z" fill="#FFB81C"/>
</g>
<defs>
<clipPath id="clip0_36_8">
<rect width="27.1186" height="27.1186" fill="white" transform="translate(2.71191 2.71188)"/>
</clipPath>
</defs>
</svg>
