<svg width="50" height="50" viewBox="0 0 50 50" fill="none" xmlns="http://www.w3.org/2000/svg">
<circle cx="25" cy="25" r="25" fill="#006D5B"/>
<g clip-path="url(#clip0_36_8)">
<path d="M23.8123 4.2399C24.2612 4.1826 24.7235 4.24793 25.1745 4.25048C26.2011 4.25632 27.2049 4.17147 28.2209 4.39318C29.6748 4.71041 30.9292 5.54496 31.7375 6.8503C32.1937 7.58704 32.5173 8.45288 32.6622 9.31572C32.8417 10.3847 32.735 11.5329 32.7352 12.6156C32.7355 14.2859 32.928 16.0983 32.5848 17.7345C35.1849 17.777 37.7807 17.7166 40.3798 17.7202C42.2836 17.7227 43.5786 17.9138 44.9706 19.3791C46.5644 21.0571 46.5999 23.1642 46.5848 25.3763C46.5708 27.4298 46.3526 29.3123 44.8724 30.816C44.1415 31.5585 43.2546 32.0842 42.2587 32.3305C41.1619 32.6017 39.6612 32.4635 38.5067 32.457L32.58 32.4095C32.6097 32.7578 32.648 33.1055 32.6689 33.4544C32.7394 34.6327 32.7001 35.8393 32.7065 37.0214C32.7139 38.3687 32.8301 40.8146 32.5389 42.0749C32.322 43.013 31.8645 43.9225 31.2451 44.6411C30.2226 45.8275 28.6064 46.4894 27.0951 46.5668C25.9666 46.6684 24.7883 46.642 23.6587 46.5641C21.9676 46.4475 20.4654 45.6876 19.3524 44.3509C18.7525 43.6305 18.3107 42.7406 18.1065 41.8111C17.8711 40.7399 17.976 39.5783 17.9636 38.4845C17.9406 36.4712 17.8681 34.4205 18.0174 32.4133L16.0427 32.4365L12.362 32.4618C10.0139 32.4723 7.56841 32.6101 5.75911 30.7576C4.22659 29.1885 4.24054 27.1019 4.23431 25.0184C4.22781 22.8656 4.27592 21.0637 5.84013 19.4449C6.52125 18.7399 7.33324 18.2648 8.26252 18.0109C9.73605 17.6085 11.3408 17.7567 12.8521 17.7557L18.0245 17.7508C17.9103 16.1205 17.9353 14.4984 17.9354 12.8651C17.9354 11.5631 17.8216 10.151 18.1103 8.87678C18.3042 8.02133 18.6936 7.21105 19.2299 6.53179C20.3889 5.06359 22.0379 4.42128 23.8123 4.2399Z" fill="#006D5B"/>
<path d="M21.9166 28.2125C22.0566 28.2067 22.1921 28.1973 22.3209 28.266C22.4835 28.3526 22.6577 28.6004 22.7042 28.7816C22.7914 29.1211 22.6573 29.4607 22.484 29.7446C22.1053 30.365 20.8575 31.7358 20.1687 31.9008C20.067 31.8835 19.9577 31.8647 19.8644 31.8168C19.4985 31.629 19.3915 31.1867 19.2833 30.8146C19.5892 30.3995 20.0182 30.0461 20.3888 29.6937L21.9166 28.2125Z" fill="#FFB81C"/>
<path d="M18.5305 26.12L18.6201 26.1181C19.069 26.1113 19.8304 26.1508 20.1561 26.5121C20.2533 26.62 20.2949 26.7592 20.2831 26.9051C20.2209 27.673 19.1097 28.5107 18.5816 28.9864C18.4838 29.0513 18.3945 29.1012 18.2795 29.1252C18.036 29.1761 17.8134 29.138 17.6122 28.9827C17.1579 28.632 17.0475 28.113 16.957 27.5701C17.4008 26.8927 17.8306 26.4929 18.5305 26.12Z" fill="#FFB81C"/>
<path d="M24.3003 31.1392C24.5387 31.1145 24.9091 31.1701 25.1168 31.3089C25.2382 31.3901 25.3166 31.4923 25.347 31.6391C25.4174 31.9796 25.2358 32.3584 25.0531 32.6277C24.5429 33.3796 23.7133 34.1375 22.8232 34.2917C22.5915 34.2696 22.3559 34.1574 22.1491 34.0498C21.9904 33.9672 21.863 33.8522 21.8093 33.6711C21.7398 33.4369 21.8078 33.1928 21.9213 32.9861C22.3314 32.2401 23.5125 31.3857 24.3003 31.1392Z" fill="#FFB81C"/>
<path d="M25.5985 5.88575C26.0618 5.87818 26.5279 5.8707 26.9907 5.89789C28.224 5.97042 29.2796 6.31949 30.117 7.3117C30.5561 7.83194 30.8724 8.49889 31.0159 9.17396C31.2099 10.0873 31.1037 11.0948 31.1001 12.0249C31.0959 13.0813 31.1334 14.1397 31.1087 15.1956C31.0947 15.7941 31.0393 16.3856 31.001 16.9823C30.4669 16.3971 29.9328 15.8138 29.3106 15.3273C27.8749 14.2047 26.4229 13.8877 24.6598 14.1545C22.8044 14.526 21.8868 15.3378 20.5552 16.6541C20.3102 16.8961 20.0881 17.1654 19.8311 17.393L19.7628 17.3814C19.6203 17.1674 19.6022 16.7544 19.5903 16.4964C19.5319 15.2218 19.5599 13.9384 19.5578 12.6628C19.5558 11.4925 19.4271 10.2359 19.6866 9.09038C19.8389 8.41842 20.1489 7.77537 20.6012 7.26727C21.8956 5.81313 23.8501 5.95108 25.5985 5.88575Z" fill="#FFB81C"/>
<path d="M30.9301 32.9464C30.9652 32.9627 30.9866 32.9976 31.0119 33.0272C31.1715 34.0435 31.0776 35.4974 31.0787 36.5534C31.0801 38.0432 31.1743 39.6613 31.0244 41.1374C30.9781 41.5932 30.8697 42.0303 30.6989 42.4529C30.2681 43.5188 29.4893 44.3365 28.452 44.7652C28.1141 44.905 27.7601 44.9878 27.399 45.03C26.737 45.1073 26.0589 45.0638 25.3938 45.0652C24.634 45.0666 23.8603 45.1151 23.1053 45.0052C22.6909 44.9449 22.2924 44.8338 21.9095 44.6572C20.9056 44.1937 20.1718 43.3276 19.7837 42.2659C19.4304 41.1001 19.6072 39.3143 19.6006 38.0738C19.5926 36.5705 19.4893 35.0825 19.6532 33.5827C19.9292 34.0213 20.2177 34.441 20.5597 34.8274C21.165 35.5114 21.9093 36.0353 22.8299 36.0628C24.3852 36.1092 25.5684 34.6348 26.6076 33.6182C27.048 33.9116 27.4752 34.0987 28.0052 34.1313C29.1942 34.2043 30.0623 33.745 30.9301 32.9464Z" fill="#FFB81C"/>
<path d="M25.45 15.8257C25.6245 15.8026 25.7973 15.7951 25.973 15.793C28.1269 15.7679 29.2619 17.5911 30.6504 18.9853C30.8631 19.1989 31.0772 19.3569 31.3707 19.4202C32.0532 19.5674 32.8764 19.4906 33.5767 19.5061C35.3725 19.5458 37.1711 19.5769 38.9672 19.5491C39.5624 19.5399 40.1568 19.4837 40.7516 19.4776C41.9087 19.4654 42.9667 19.7403 43.8089 20.6076C44.6186 21.4413 44.9255 22.4434 44.9311 23.6099C44.9343 24.3095 44.9176 25.0104 44.9067 25.7098C44.8825 27.2587 44.8242 28.5305 43.7056 29.6853C42.5686 30.8594 41.1502 30.7619 39.6624 30.7336C38.941 30.7199 38.219 30.7243 37.4974 30.7247C36.2676 30.7151 35.0543 30.8493 33.8221 30.7694C34.2255 29.9774 34.5437 29.3205 34.4135 28.3965C34.3488 27.9371 34.2256 27.6538 33.9595 27.2779C33.2619 26.2929 32.3773 25.4415 31.5539 24.5728L28.7698 21.5973L27.3117 20.0458C26.9909 19.7036 26.6827 19.3178 26.3073 19.0395C25.8762 18.7198 25.2853 18.7779 24.7919 18.8605C23.945 19.556 23.4035 20.7438 22.2346 20.9178C21.7983 20.9827 21.2602 20.8727 20.9061 20.5906C20.7113 20.4354 20.5955 20.2263 20.5702 19.9719C20.5224 19.4907 20.8013 19.043 21.0816 18.6863C21.3717 18.3171 21.7106 17.9789 22.0378 17.6452C23.1087 16.5527 23.9349 15.9892 25.45 15.8257Z" fill="#FFB81C"/>
<path d="M13.277 19.4784L16.4957 19.4756C17.1928 19.4781 17.9492 19.4454 18.6366 19.562C19.0303 20.5013 18.7789 20.9962 19.6876 21.7261C20.4823 22.3644 21.5075 22.7339 22.5153 22.592C23.7817 22.4138 24.6678 21.5857 25.4146 20.5726C26.0197 21.1779 26.5678 21.8473 27.1579 22.4692L30.2679 25.7791C31.0033 26.5602 32.3392 27.7617 32.8022 28.6753C32.7645 28.9586 32.7007 29.2655 32.5335 29.4996C32.2564 29.8879 31.8048 29.939 31.3794 30.0119C30.7354 29.6342 30.2509 28.8814 29.7617 28.3192C29.0127 27.4587 26.4721 24.6686 25.543 24.2439C25.3276 24.1455 25.0756 24.0808 24.8507 24.1843C24.5143 24.339 24.377 24.7551 24.2646 25.0883C24.3577 25.3024 24.4864 25.4861 24.6375 25.6599C25.133 26.2295 25.735 26.7206 26.2721 27.2483C26.9686 27.9325 27.6236 28.6621 28.3181 29.3485C28.7372 29.7628 29.2356 30.1515 29.5808 30.6363C29.824 30.9781 29.826 31.1566 29.7697 31.5636C29.6095 31.7952 29.4491 31.9863 29.2148 32.1418C28.6027 32.5482 27.9257 32.4572 27.2592 32.2986C26.9466 31.8242 26.7889 31.2542 26.4755 30.7735C26.3891 30.6411 26.2944 30.5089 26.1901 30.3911C25.9522 30.1225 25.5982 29.9821 25.3676 29.7165C25.1982 29.5213 25.0641 29.2433 24.9257 29.0207C24.6803 28.6263 24.3751 28.2879 24.0375 27.9767C23.4693 27.4532 22.677 27.0943 22.1668 26.5717C21.7527 26.1476 21.6955 25.5048 21.2504 25.081C20.6947 24.5521 19.7467 24.3838 19.0176 24.4182C17.9802 24.4671 16.9552 24.9387 16.2522 25.7401C15.7258 26.3401 15.3636 27.1713 15.4116 27.994C15.494 29.407 16.3293 29.8703 17.248 30.709C16.9093 30.7463 16.5692 30.7733 16.2291 30.7917C15.2253 30.846 14.2057 30.7504 13.1999 30.7439C11.9693 30.736 9.78156 30.8811 8.67575 30.6373C8.04204 30.4977 7.42975 30.1952 6.95116 29.7377C6.23274 29.0512 5.896 28.0824 5.85509 27.0837C5.83183 26.5164 5.85132 25.9462 5.8349 25.3779C5.78934 23.8054 5.63765 22.0713 6.75119 20.8262C7.88947 19.5532 9.37065 19.5093 10.93 19.5052C11.7126 19.5032 12.4949 19.5111 13.277 19.4784Z" fill="#FFB81C"/>
</g>
<defs>
<clipPath id="clip0_36_8">
<rect width="42.3729" height="42.3729" fill="white" transform="translate(4.2373 4.2373)"/>
</clipPath>
</defs>
</svg>
